<?xml version="1.0" encoding="utf-8" standalone="no"?>
<!DOCTYPE svg PUBLIC "-//W3C//DTD SVG 1.1//EN"
  "http://www.w3.org/Graphics/SVG/1.1/DTD/svg11.dtd">
<svg xmlns:xlink="http://www.w3.org/1999/xlink" width="460.8pt" height="345.6pt" viewBox="0 0 460.8 345.6" xmlns="http://www.w3.org/2000/svg" version="1.1">
 <metadata>
  <rdf:RDF xmlns:dc="http://purl.org/dc/elements/1.1/" xmlns:cc="http://creativecommons.org/ns#" xmlns:rdf="http://www.w3.org/1999/02/22-rdf-syntax-ns#">
   <cc:Work>
    <dc:type rdf:resource="http://purl.org/dc/dcmitype/StillImage"/>
    <dc:date>2023-04-20T19:25:11.820514</dc:date>
    <dc:format>image/svg+xml</dc:format>
    <dc:creator>
     <cc:Agent>
      <dc:title>Matplotlib v3.7.1, https://matplotlib.org/</dc:title>
     </cc:Agent>
    </dc:creator>
   </cc:Work>
  </rdf:RDF>
 </metadata>
 <defs>
  <style type="text/css">*{stroke-linejoin: round; stroke-linecap: butt}</style>
 </defs>
 <g id="figure_1">
  <g id="patch_1">
   <path d="M 0 345.6 
L 460.8 345.6 
L 460.8 0 
L 0 0 
z
" style="fill: #ffffff"/>
  </g>
  <g id="axes_1">
   <g id="patch_2">
    <path d="M 57.6 307.584 
L 414.72 307.584 
L 414.72 41.472 
L 57.6 41.472 
z
" style="fill: #ffffff"/>
   </g>
   <g id="matplotlib.axis_1">
    <g id="xtick_1">
     <g id="line2d_1">
      <defs>
       <path id="m3660be6f1f" d="M 0 0 
L 0 3.5 
" style="stroke: #000000; stroke-width: 0.8"/>
      </defs>
      <g>
       <use xlink:href="#m3660be6f1f" x="57.6" y="307.584" style="stroke: #000000; stroke-width: 0.8"/>
      </g>
     </g>
     <g id="text_1">
      <!-- 0.0 -->
      <g transform="translate(50.532031 322.57775) scale(0.1 -0.1)">
       <defs>
        <path id="MicrosoftYaHei-30" d="M 284 2325 
Q 284 3606 709 4264 
Q 1134 4922 1941 4922 
Q 3478 4922 3478 2441 
Q 3478 1216 3045 567 
Q 2613 -81 1831 -81 
Q 1094 -81 689 534 
Q 284 1150 284 2325 
z
M 909 2353 
Q 909 425 1888 425 
Q 2850 425 2850 2384 
Q 2850 4413 1906 4413 
Q 909 4413 909 2353 
z
" transform="scale(0.015625)"/>
        <path id="MicrosoftYaHei-2e" d="M 372 322 
Q 372 491 487 606 
Q 603 722 775 722 
Q 950 722 1065 605 
Q 1181 488 1181 322 
Q 1181 159 1065 42 
Q 950 -75 772 -75 
Q 600 -75 486 42 
Q 372 159 372 322 
z
" transform="scale(0.015625)"/>
       </defs>
       <use xlink:href="#MicrosoftYaHei-30"/>
       <use xlink:href="#MicrosoftYaHei-2e" x="58.642578"/>
       <use xlink:href="#MicrosoftYaHei-30" x="82.714844"/>
      </g>
     </g>
    </g>
    <g id="xtick_2">
     <g id="line2d_2">
      <g>
       <use xlink:href="#m3660be6f1f" x="129.024" y="307.584" style="stroke: #000000; stroke-width: 0.8"/>
      </g>
     </g>
     <g id="text_2">
      <!-- 0.2 -->
      <g transform="translate(121.956031 322.57775) scale(0.1 -0.1)">
       <defs>
        <path id="MicrosoftYaHei-32" d="M 2666 3572 
Q 2666 3963 2419 4186 
Q 2172 4409 1747 4409 
Q 1447 4409 1140 4256 
Q 834 4103 569 3819 
L 569 4413 
Q 806 4659 1107 4790 
Q 1409 4922 1816 4922 
Q 2472 4922 2872 4570 
Q 3272 4219 3272 3619 
Q 3272 3084 3026 2693 
Q 2781 2303 2188 1894 
Q 1581 1475 1376 1294 
Q 1172 1113 1090 947 
Q 1009 781 1009 544 
L 3416 544 
L 3416 0 
L 372 0 
L 372 241 
Q 372 659 486 951 
Q 600 1244 862 1520 
Q 1125 1797 1681 2184 
Q 2250 2584 2458 2886 
Q 2666 3188 2666 3572 
z
" transform="scale(0.015625)"/>
       </defs>
       <use xlink:href="#MicrosoftYaHei-30"/>
       <use xlink:href="#MicrosoftYaHei-2e" x="58.642578"/>
       <use xlink:href="#MicrosoftYaHei-32" x="82.714844"/>
      </g>
     </g>
    </g>
    <g id="xtick_3">
     <g id="line2d_3">
      <g>
       <use xlink:href="#m3660be6f1f" x="200.448" y="307.584" style="stroke: #000000; stroke-width: 0.8"/>
      </g>
     </g>
     <g id="text_3">
      <!-- 0.4 -->
      <g transform="translate(193.380031 322.57775) scale(0.1 -0.1)">
       <defs>
        <path id="MicrosoftYaHei-34" d="M 2906 4841 
L 2906 1644 
L 3631 1644 
L 3631 1138 
L 2906 1138 
L 2906 0 
L 2313 0 
L 2313 1138 
L 53 1138 
L 53 1616 
Q 656 2294 1265 3178 
Q 1875 4063 2272 4841 
L 2906 4841 
z
M 741 1644 
L 2313 1644 
L 2313 3950 
Q 1988 3366 1616 2817 
Q 1244 2269 741 1644 
z
" transform="scale(0.015625)"/>
       </defs>
       <use xlink:href="#MicrosoftYaHei-30"/>
       <use xlink:href="#MicrosoftYaHei-2e" x="58.642578"/>
       <use xlink:href="#MicrosoftYaHei-34" x="82.714844"/>
      </g>
     </g>
    </g>
    <g id="xtick_4">
     <g id="line2d_4">
      <g>
       <use xlink:href="#m3660be6f1f" x="271.872" y="307.584" style="stroke: #000000; stroke-width: 0.8"/>
      </g>
     </g>
     <g id="text_4">
      <!-- 0.6 -->
      <g transform="translate(264.804031 322.57775) scale(0.1 -0.1)">
       <defs>
        <path id="MicrosoftYaHei-36" d="M 3181 4219 
Q 2803 4413 2391 4413 
Q 1763 4413 1381 3866 
Q 1000 3319 994 2372 
L 1009 2372 
Q 1353 3038 2106 3038 
Q 2734 3038 3109 2628 
Q 3484 2219 3484 1541 
Q 3484 831 3051 375 
Q 2619 -81 1947 -81 
Q 1209 -81 789 495 
Q 369 1072 369 2131 
Q 369 3413 920 4167 
Q 1472 4922 2372 4922 
Q 2888 4922 3181 4781 
L 3181 4219 
z
M 1031 1584 
Q 1031 1106 1286 765 
Q 1541 425 1963 425 
Q 2363 425 2613 719 
Q 2863 1013 2863 1475 
Q 2863 1975 2627 2253 
Q 2391 2531 1956 2531 
Q 1544 2531 1287 2250 
Q 1031 1969 1031 1584 
z
" transform="scale(0.015625)"/>
       </defs>
       <use xlink:href="#MicrosoftYaHei-30"/>
       <use xlink:href="#MicrosoftYaHei-2e" x="58.642578"/>
       <use xlink:href="#MicrosoftYaHei-36" x="82.714844"/>
      </g>
     </g>
    </g>
    <g id="xtick_5">
     <g id="line2d_5">
      <g>
       <use xlink:href="#m3660be6f1f" x="343.296" y="307.584" style="stroke: #000000; stroke-width: 0.8"/>
      </g>
     </g>
     <g id="text_5">
      <!-- 0.8 -->
      <g transform="translate(336.228031 322.57775) scale(0.1 -0.1)">
       <defs>
        <path id="MicrosoftYaHei-38" d="M 306 1350 
Q 306 1769 556 2122 
Q 806 2475 1200 2625 
Q 884 2803 700 3081 
Q 516 3359 516 3684 
Q 516 4028 692 4312 
Q 869 4597 1183 4759 
Q 1497 4922 1875 4922 
Q 2256 4922 2572 4761 
Q 2888 4600 3063 4315 
Q 3238 4031 3238 3684 
Q 3238 3366 3058 3086 
Q 2878 2806 2559 2625 
Q 2953 2472 3200 2119 
Q 3447 1766 3447 1350 
Q 3447 938 3250 611 
Q 3053 284 2690 103 
Q 2328 -78 1875 -78 
Q 1425 -78 1065 103 
Q 706 284 506 612 
Q 306 941 306 1350 
z
M 906 1378 
Q 906 947 1172 687 
Q 1438 428 1878 428 
Q 2309 428 2582 692 
Q 2856 956 2856 1378 
Q 2856 1778 2579 2051 
Q 2303 2325 1878 2325 
Q 1456 2325 1181 2058 
Q 906 1791 906 1378 
z
M 1081 3634 
Q 1081 3309 1312 3076 
Q 1544 2844 1878 2844 
Q 2206 2844 2445 3078 
Q 2684 3313 2684 3634 
Q 2684 3963 2454 4191 
Q 2225 4419 1878 4419 
Q 1534 4419 1307 4195 
Q 1081 3972 1081 3634 
z
" transform="scale(0.015625)"/>
       </defs>
       <use xlink:href="#MicrosoftYaHei-30"/>
       <use xlink:href="#MicrosoftYaHei-2e" x="58.642578"/>
       <use xlink:href="#MicrosoftYaHei-38" x="82.714844"/>
      </g>
     </g>
    </g>
    <g id="xtick_6">
     <g id="line2d_6">
      <g>
       <use xlink:href="#m3660be6f1f" x="414.72" y="307.584" style="stroke: #000000; stroke-width: 0.8"/>
      </g>
     </g>
     <g id="text_6">
      <!-- 1.0 -->
      <g transform="translate(407.652031 322.57775) scale(0.1 -0.1)">
       <defs>
        <path id="MicrosoftYaHei-31" d="M 1781 0 
L 1781 4141 
Q 1638 3997 1295 3819 
Q 953 3641 663 3569 
L 663 4169 
Q 1047 4275 1484 4508 
Q 1922 4741 2156 4947 
L 2388 4947 
L 2388 0 
L 1781 0 
z
" transform="scale(0.015625)"/>
       </defs>
       <use xlink:href="#MicrosoftYaHei-31"/>
       <use xlink:href="#MicrosoftYaHei-2e" x="58.642578"/>
       <use xlink:href="#MicrosoftYaHei-30" x="82.714844"/>
      </g>
     </g>
    </g>
    <g id="text_7">
     <!-- FPR -->
     <g transform="translate(227.180312 337.057437) scale(0.1 -0.1)">
      <defs>
       <path id="MicrosoftYaHei-46" d="M 3119 4284 
L 1250 4284 
L 1250 2666 
L 2981 2666 
L 2981 2116 
L 1250 2116 
L 1250 0 
L 625 0 
L 625 4841 
L 3119 4841 
L 3119 4284 
z
" transform="scale(0.015625)"/>
       <path id="MicrosoftYaHei-50" d="M 1250 1809 
L 1250 0 
L 625 0 
L 625 4841 
L 2000 4841 
Q 2784 4841 3217 4462 
Q 3650 4084 3650 3381 
Q 3650 2669 3144 2226 
Q 2638 1784 1878 1809 
L 1250 1809 
z
M 1250 4291 
L 1250 2359 
L 1828 2359 
Q 2400 2359 2697 2617 
Q 2994 2875 2994 3356 
Q 2994 4291 1888 4291 
L 1250 4291 
z
" transform="scale(0.015625)"/>
       <path id="MicrosoftYaHei-52" d="M 4159 0 
L 3422 0 
L 2619 1344 
Q 2378 1747 2178 1892 
Q 1978 2038 1700 2038 
L 1250 2038 
L 1250 0 
L 625 0 
L 625 4841 
L 2100 4841 
Q 2806 4841 3206 4500 
Q 3606 4159 3606 3547 
Q 3606 2541 2531 2241 
L 2531 2225 
Q 2731 2141 2876 1984 
Q 3022 1828 3253 1450 
L 4159 0 
z
M 1250 4294 
L 1250 2584 
L 1988 2584 
Q 2416 2584 2683 2834 
Q 2950 3084 2950 3491 
Q 2950 3869 2706 4081 
Q 2463 4294 1997 4294 
L 1250 4294 
z
" transform="scale(0.015625)"/>
      </defs>
      <use xlink:href="#MicrosoftYaHei-46"/>
      <use xlink:href="#MicrosoftYaHei-50" x="53.125"/>
      <use xlink:href="#MicrosoftYaHei-52" x="114.306641"/>
     </g>
    </g>
   </g>
   <g id="matplotlib.axis_2">
    <g id="ytick_1">
     <g id="line2d_7">
      <defs>
       <path id="m291d996f5f" d="M 0 0 
L -3.5 0 
" style="stroke: #000000; stroke-width: 0.8"/>
      </defs>
      <g>
       <use xlink:href="#m291d996f5f" x="57.6" y="307.584" style="stroke: #000000; stroke-width: 0.8"/>
      </g>
     </g>
     <g id="text_8">
      <!-- 0.0 -->
      <g transform="translate(36.464062 311.580875) scale(0.1 -0.1)">
       <use xlink:href="#MicrosoftYaHei-30"/>
       <use xlink:href="#MicrosoftYaHei-2e" x="58.642578"/>
       <use xlink:href="#MicrosoftYaHei-30" x="82.714844"/>
      </g>
     </g>
    </g>
    <g id="ytick_2">
     <g id="line2d_8">
      <g>
       <use xlink:href="#m291d996f5f" x="57.6" y="254.3616" style="stroke: #000000; stroke-width: 0.8"/>
      </g>
     </g>
     <g id="text_9">
      <!-- 0.2 -->
      <g transform="translate(36.464062 258.358475) scale(0.1 -0.1)">
       <use xlink:href="#MicrosoftYaHei-30"/>
       <use xlink:href="#MicrosoftYaHei-2e" x="58.642578"/>
       <use xlink:href="#MicrosoftYaHei-32" x="82.714844"/>
      </g>
     </g>
    </g>
    <g id="ytick_3">
     <g id="line2d_9">
      <g>
       <use xlink:href="#m291d996f5f" x="57.6" y="201.1392" style="stroke: #000000; stroke-width: 0.8"/>
      </g>
     </g>
     <g id="text_10">
      <!-- 0.4 -->
      <g transform="translate(36.464062 205.136075) scale(0.1 -0.1)">
       <use xlink:href="#MicrosoftYaHei-30"/>
       <use xlink:href="#MicrosoftYaHei-2e" x="58.642578"/>
       <use xlink:href="#MicrosoftYaHei-34" x="82.714844"/>
      </g>
     </g>
    </g>
    <g id="ytick_4">
     <g id="line2d_10">
      <g>
       <use xlink:href="#m291d996f5f" x="57.6" y="147.9168" style="stroke: #000000; stroke-width: 0.8"/>
      </g>
     </g>
     <g id="text_11">
      <!-- 0.6 -->
      <g transform="translate(36.464062 151.913675) scale(0.1 -0.1)">
       <use xlink:href="#MicrosoftYaHei-30"/>
       <use xlink:href="#MicrosoftYaHei-2e" x="58.642578"/>
       <use xlink:href="#MicrosoftYaHei-36" x="82.714844"/>
      </g>
     </g>
    </g>
    <g id="ytick_5">
     <g id="line2d_11">
      <g>
       <use xlink:href="#m291d996f5f" x="57.6" y="94.6944" style="stroke: #000000; stroke-width: 0.8"/>
      </g>
     </g>
     <g id="text_12">
      <!-- 0.8 -->
      <g transform="translate(36.464062 98.691275) scale(0.1 -0.1)">
       <use xlink:href="#MicrosoftYaHei-30"/>
       <use xlink:href="#MicrosoftYaHei-2e" x="58.642578"/>
       <use xlink:href="#MicrosoftYaHei-38" x="82.714844"/>
      </g>
     </g>
    </g>
    <g id="ytick_6">
     <g id="line2d_12">
      <g>
       <use xlink:href="#m291d996f5f" x="57.6" y="41.472" style="stroke: #000000; stroke-width: 0.8"/>
      </g>
     </g>
     <g id="text_13">
      <!-- 1.0 -->
      <g transform="translate(36.464062 45.468875) scale(0.1 -0.1)">
       <use xlink:href="#MicrosoftYaHei-31"/>
       <use xlink:href="#MicrosoftYaHei-2e" x="58.642578"/>
       <use xlink:href="#MicrosoftYaHei-30" x="82.714844"/>
      </g>
     </g>
    </g>
    <g id="text_14">
     <!-- TPR -->
     <g transform="translate(29.978125 183.717844) rotate(-90) scale(0.1 -0.1)">
      <defs>
       <path id="MicrosoftYaHei-54" d="M 3550 4284 
L 2153 4284 
L 2153 0 
L 1525 0 
L 1525 4284 
L 134 4284 
L 134 4841 
L 3550 4841 
L 3550 4284 
z
" transform="scale(0.015625)"/>
      </defs>
      <use xlink:href="#MicrosoftYaHei-54"/>
      <use xlink:href="#MicrosoftYaHei-50" x="57.324219"/>
      <use xlink:href="#MicrosoftYaHei-52" x="118.505859"/>
     </g>
    </g>
   </g>
   <g id="line2d_13">
    <path d="M 57.6 307.584 
L 57.691218 249.4336 
L 57.782437 249.4336 
L 57.873655 239.5776 
L 57.919264 239.5776 
L 58.010483 234.6496 
L 58.101701 234.6496 
L 58.19292 224.7936 
L 58.284138 224.7936 
L 58.375356 218.88 
L 58.420966 218.88 
L 58.512184 215.9232 
L 58.557793 215.9232 
L 58.557793 213.952 
L 58.694621 213.952 
L 58.694621 212.9664 
L 58.831448 212.9664 
L 58.922667 210.0096 
L 59.196322 210.0096 
L 59.28754 208.0384 
L 59.469977 208.0384 
L 59.469977 206.0672 
L 59.606805 206.0672 
L 59.606805 204.096 
L 59.743632 204.096 
L 59.743632 202.1248 
L 59.88046 202.1248 
L 59.88046 201.1392 
L 60.290943 201.1392 
L 60.382161 198.1824 
L 61.431172 198.1824 
L 61.431172 197.1968 
L 62.024092 197.1968 
L 62.024092 196.2112 
L 62.252138 196.2112 
L 62.252138 195.2256 
L 62.434575 195.2256 
L 62.434575 194.24 
L 63.164322 194.24 
L 63.164322 193.2544 
L 63.346759 193.2544 
L 63.392368 191.2832 
L 63.939678 191.2832 
L 64.030897 189.312 
L 64.258943 189.312 
L 64.258943 188.3264 
L 64.486989 188.3264 
L 64.486989 187.3408 
L 67.041103 187.3408 
L 67.132322 185.3696 
L 68.090115 185.3696 
L 68.090115 184.384 
L 68.95669 184.384 
L 68.95669 183.3984 
L 69.777655 183.3984 
L 69.777655 182.4128 
L 70.279356 182.4128 
L 70.279356 181.4272 
L 70.735448 181.4272 
L 70.735448 180.4416 
L 71.009103 180.4416 
L 71.009103 179.456 
L 71.78446 179.456 
L 71.78446 178.4704 
L 73.107126 178.4704 
L 73.107126 177.4848 
L 73.608828 177.4848 
L 73.608828 175.5136 
L 74.110529 175.5136 
L 74.110529 174.528 
L 74.794667 174.528 
L 74.794667 173.5424 
L 77.120736 173.5424 
L 77.120736 172.5568 
L 77.303172 172.5568 
L 77.303172 171.5712 
L 79.948506 171.5712 
L 79.948506 170.5856 
L 81.408 170.5856 
L 81.408 169.6 
L 81.727264 169.6 
L 81.727264 168.6144 
L 82.00092 168.6144 
L 82.00092 167.6288 
L 83.551632 167.6288 
L 83.551632 166.6432 
L 83.779678 166.6432 
L 83.870897 164.672 
L 85.056736 164.672 
L 85.056736 163.6864 
L 87.291586 163.6864 
L 87.291586 162.7008 
L 87.930115 162.7008 
L 87.930115 161.7152 
L 90.028138 161.7152 
L 90.028138 160.7296 
L 93.266391 160.7296 
L 93.266391 157.7728 
L 94.45223 157.7728 
L 94.497839 155.8016 
L 94.771494 155.8016 
L 94.771494 154.816 
L 95.045149 154.816 
L 95.045149 153.8304 
L 95.683678 153.8304 
L 95.683678 152.8448 
L 95.957333 152.8448 
L 95.957333 151.8592 
L 96.641471 151.8592 
L 96.641471 150.8736 
L 97.508046 150.8736 
L 97.508046 149.888 
L 99.651678 149.888 
L 99.651678 148.9024 
L 102.068966 148.9024 
L 102.068966 147.9168 
L 102.798713 147.9168 
L 102.798713 146.9312 
L 103.346023 146.9312 
L 103.346023 144.96 
L 104.62308 144.96 
L 104.62308 143.9744 
L 106.310621 143.9744 
L 106.310621 142.9888 
L 107.314023 142.9888 
L 107.314023 142.0032 
L 107.906943 142.0032 
L 107.906943 141.0176 
L 108.180598 141.0176 
L 108.180598 140.032 
L 109.457655 140.032 
L 109.457655 139.0464 
L 110.461057 139.0464 
L 110.461057 138.0608 
L 111.692506 138.0608 
L 111.692506 137.0752 
L 112.285425 137.0752 
L 112.285425 136.0896 
L 115.478069 136.0896 
L 115.478069 135.104 
L 121.954575 135.104 
L 121.954575 134.1184 
L 124.964782 134.1184 
L 124.964782 133.1328 
L 125.831356 133.1328 
L 125.831356 132.1472 
L 131.669333 132.1472 
L 131.669333 131.1616 
L 134.041011 131.1616 
L 134.041011 130.176 
L 134.269057 130.176 
L 134.269057 129.1904 
L 137.416092 129.1904 
L 137.416092 128.2048 
L 140.699954 128.2048 
L 140.699954 126.2336 
L 143.162851 126.2336 
L 143.162851 125.248 
L 148.31669 125.248 
L 148.31669 124.2624 
L 150.733977 124.2624 
L 150.733977 123.2768 
L 151.098851 123.2768 
L 151.098851 122.2912 
L 152.467126 122.2912 
L 152.467126 121.3056 
L 153.242483 121.3056 
L 153.242483 120.32 
L 161.36092 120.32 
L 161.36092 119.3344 
L 162.181885 119.3344 
L 162.181885 118.3488 
L 164.325517 118.3488 
L 164.325517 117.3632 
L 167.198897 117.3632 
L 167.198897 116.3776 
L 169.160092 116.3776 
L 169.160092 115.392 
L 175.226115 115.392 
L 175.226115 114.4064 
L 176.275126 114.4064 
L 176.275126 113.4208 
L 181.611402 113.4208 
L 181.611402 112.4352 
L 196.662437 112.4352 
L 196.753655 110.464 
L 198.030713 110.464 
L 198.030713 109.4784 
L 203.731862 109.4784 
L 203.731862 108.4928 
L 209.341793 108.4928 
L 209.341793 107.5072 
L 211.120552 107.5072 
L 211.120552 106.5216 
L 220.288 106.5216 
L 220.288 105.536 
L 224.256 105.536 
L 224.256 104.5504 
L 226.034759 104.5504 
L 226.034759 103.5648 
L 233.012966 103.5648 
L 233.012966 102.5792 
L 233.925149 102.5792 
L 233.925149 101.5936 
L 234.47246 101.5936 
L 234.47246 100.608 
L 235.247816 100.608 
L 235.247816 99.6224 
L 235.430253 99.6224 
L 235.430253 98.6368 
L 243.822345 98.6368 
L 243.822345 97.6512 
L 244.415264 97.6512 
L 244.415264 96.6656 
L 244.597701 96.6656 
L 244.597701 95.68 
L 246.422069 95.68 
L 246.422069 94.6944 
L 250.070805 94.6944 
L 250.116414 92.7232 
L 250.982989 92.7232 
L 251.028598 90.752 
L 252.944184 90.752 
L 252.944184 89.7664 
L 253.582713 89.7664 
L 253.582713 88.7808 
L 258.599724 88.7808 
L 258.599724 87.7952 
L 259.42069 87.7952 
L 259.42069 86.8096 
L 260.332874 86.8096 
L 260.332874 85.824 
L 260.880184 85.824 
L 260.880184 84.8384 
L 262.476506 84.8384 
L 262.476506 83.8528 
L 267.35669 83.8528 
L 267.35669 82.8672 
L 270.230069 82.8672 
L 270.230069 81.8816 
L 272.054437 81.8816 
L 272.054437 80.896 
L 275.976828 80.896 
L 275.976828 79.9104 
L 276.43292 79.9104 
L 276.43292 78.9248 
L 278.166069 78.9248 
L 278.166069 76.9536 
L 278.713379 76.9536 
L 278.713379 75.968 
L 279.534345 75.968 
L 279.534345 74.9824 
L 282.316506 74.9824 
L 282.316506 73.9968 
L 283.365517 73.9968 
L 283.365517 73.0112 
L 287.972046 73.0112 
L 287.972046 72.0256 
L 288.245701 72.0256 
L 288.245701 71.04 
L 289.066667 71.04 
L 289.066667 70.0544 
L 290.891034 70.0544 
L 290.891034 69.0688 
L 291.027862 69.0688 
L 291.027862 68.0832 
L 296.774621 68.0832 
L 296.774621 67.0976 
L 298.781425 67.0976 
L 298.781425 66.112 
L 303.251126 66.112 
L 303.251126 65.1264 
L 307.401563 65.1264 
L 307.401563 64.1408 
L 313.376368 64.1408 
L 313.376368 63.1552 
L 314.334161 63.1552 
L 314.334161 61.184 
L 315.52 61.184 
L 315.611218 59.2128 
L 322.178943 59.2128 
L 322.178943 58.2272 
L 330.981517 58.2272 
L 330.981517 57.2416 
L 331.756874 57.2416 
L 331.756874 56.256 
L 334.721471 56.256 
L 334.721471 55.2704 
L 342.520644 55.2704 
L 342.520644 53.2992 
L 343.980138 53.2992 
L 343.980138 52.3136 
L 344.618667 52.3136 
L 344.618667 51.328 
L 347.081563 51.328 
L 347.081563 50.3424 
L 362.725517 50.3424 
L 362.725517 49.3568 
L 368.973977 49.3568 
L 368.973977 48.3712 
L 370.387862 48.3712 
L 370.387862 47.3856 
L 371.391264 47.3856 
L 371.391264 46.4 
L 379.053609 46.4 
L 379.053609 45.4144 
L 382.42869 45.4144 
L 382.42869 44.4288 
L 386.852782 44.4288 
L 386.852782 43.4432 
L 390.045425 43.4432 
L 390.045425 42.4576 
L 398.756782 42.4576 
L 398.756782 41.472 
L 414.72 41.472 
L 414.72 41.472 
" clip-path="url(#p5a55a19128)" style="fill: none; stroke: #1f77b4; stroke-width: 1.5; stroke-linecap: square"/>
   </g>
   <g id="line2d_14">
    <path d="M 57.6 307.584 
L 414.72 41.472 
" clip-path="url(#p5a55a19128)" style="fill: none; stroke: #ff7f0e; stroke-width: 1.5; stroke-linecap: square"/>
   </g>
   <g id="patch_3">
    <path d="M 57.6 307.584 
L 57.6 41.472 
" style="fill: none; stroke: #000000; stroke-width: 0.8; stroke-linejoin: miter; stroke-linecap: square"/>
   </g>
   <g id="patch_4">
    <path d="M 414.72 307.584 
L 414.72 41.472 
" style="fill: none; stroke: #000000; stroke-width: 0.8; stroke-linejoin: miter; stroke-linecap: square"/>
   </g>
   <g id="patch_5">
    <path d="M 57.6 307.584 
L 414.72 307.584 
" style="fill: none; stroke: #000000; stroke-width: 0.8; stroke-linejoin: miter; stroke-linecap: square"/>
   </g>
   <g id="patch_6">
    <path d="M 57.6 41.472 
L 414.72 41.472 
" style="fill: none; stroke: #000000; stroke-width: 0.8; stroke-linejoin: miter; stroke-linecap: square"/>
   </g>
   <g id="text_15">
    <!-- PCA_ROC 曲线 -->
    <g transform="translate(195.035625 35.472) scale(0.12 -0.12)">
     <defs>
      <path id="MicrosoftYaHei-43" d="M 3938 200 
Q 3403 -81 2597 -81 
Q 1556 -81 934 580 
Q 313 1241 313 2328 
Q 313 3497 1013 4209 
Q 1713 4922 2791 4922 
Q 3484 4922 3938 4725 
L 3938 4072 
Q 3419 4359 2797 4359 
Q 1988 4359 1478 3820 
Q 969 3281 969 2366 
Q 969 1497 1444 986 
Q 1919 475 2688 475 
Q 3406 475 3938 800 
L 3938 200 
z
" transform="scale(0.015625)"/>
      <path id="MicrosoftYaHei-41" d="M 4428 0 
L 3738 0 
L 3244 1325 
L 1228 1325 
L 763 0 
L 72 0 
L 1916 4841 
L 2584 4841 
L 4428 0 
z
M 3050 1872 
L 2319 3884 
Q 2284 3981 2244 4222 
L 2228 4222 
Q 2194 4003 2150 3884 
L 1425 1872 
L 3050 1872 
z
" transform="scale(0.015625)"/>
      <path id="MicrosoftYaHei-5f" d="M 2869 -1634 
L 0 -1634 
L 0 -1231 
L 2869 -1231 
L 2869 -1634 
z
" transform="scale(0.015625)"/>
      <path id="MicrosoftYaHei-4f" d="M 313 2363 
Q 313 3534 947 4228 
Q 1581 4922 2666 4922 
Q 3675 4922 4290 4244 
Q 4906 3566 4906 2478 
Q 4906 1300 4275 609 
Q 3644 -81 2588 -81 
Q 1556 -81 934 597 
Q 313 1275 313 2363 
z
M 969 2413 
Q 969 1534 1417 1004 
Q 1866 475 2588 475 
Q 3363 475 3805 983 
Q 4247 1491 4247 2403 
Q 4247 3341 3814 3850 
Q 3381 4359 2628 4359 
Q 1888 4359 1428 3821 
Q 969 3284 969 2413 
z
" transform="scale(0.015625)"/>
      <path id="MicrosoftYaHei-20" transform="scale(0.015625)"/>
      <path id="MicrosoftYaHei-66f2" d="M 2163 5322 
L 2625 5322 
L 2625 4291 
L 3775 4291 
L 3775 5328 
L 4238 5328 
L 4238 4291 
L 5850 4291 
L 5850 -822 
L 5388 -822 
L 5388 -409 
L 1013 -409 
L 1013 -822 
L 550 -822 
L 550 4291 
L 2163 4291 
L 2163 5322 
z
M 1013 41 
L 2163 41 
L 2163 1753 
L 1013 1753 
L 1013 41 
z
M 4238 41 
L 5388 41 
L 5388 1753 
L 4238 1753 
L 4238 41 
z
M 2625 41 
L 3775 41 
L 3775 1753 
L 2625 1753 
L 2625 41 
z
M 1013 2203 
L 2163 2203 
L 2163 3841 
L 1013 3841 
L 1013 2203 
z
M 5388 3841 
L 4238 3841 
L 4238 2203 
L 5388 2203 
L 5388 3841 
z
M 2625 2203 
L 3775 2203 
L 3775 3841 
L 2625 3841 
L 2625 2203 
z
" transform="scale(0.015625)"/>
      <path id="MicrosoftYaHei-7ebf" d="M 1969 -347 
Q 3144 75 4003 631 
Q 3781 1197 3653 1972 
L 2319 1784 
L 2244 2234 
L 3591 2422 
Q 3538 2859 3513 3356 
L 2381 3228 
L 2306 3678 
L 3488 3809 
Q 3453 4459 3425 5303 
L 3938 5303 
Q 3953 4497 3978 3866 
L 6069 4103 
L 6125 3659 
L 3997 3413 
Q 4019 2919 4069 2488 
L 6225 2791 
L 6281 2347 
L 4128 2041 
Q 4234 1394 4416 916 
Q 5078 1416 5519 2009 
L 5925 1703 
Q 5363 1025 4619 475 
Q 4859 44 5194 -184 
Q 5606 -428 5725 66 
Q 5806 466 5856 953 
Q 6144 828 6338 772 
Q 6231 97 6125 -247 
Q 5944 -778 5506 -778 
Q 5050 -778 4663 -403 
Q 4409 -163 4209 194 
Q 3350 -363 2281 -772 
Q 2169 -597 1969 -347 
z
M 900 1541 
Q 1456 1622 2213 1753 
Q 2175 1522 2156 1272 
Q 1113 1109 325 978 
L 225 1447 
Q 659 1913 1178 2775 
Q 672 2747 225 2703 
L 106 3128 
Q 688 3922 1300 5353 
L 1775 5166 
Q 1131 3897 669 3166 
Q 1041 3178 1422 3194 
Q 1638 3578 1869 4028 
L 2331 3797 
Q 1569 2478 900 1541 
z
M 106 97 
Q 1206 334 2331 616 
Q 2313 366 2313 141 
Q 1269 -103 244 -378 
L 106 97 
z
M 4463 4972 
L 4731 5284 
Q 5175 5003 5681 4609 
L 5381 4247 
Q 4863 4691 4463 4972 
z
" transform="scale(0.015625)"/>
     </defs>
     <use xlink:href="#MicrosoftYaHei-50"/>
     <use xlink:href="#MicrosoftYaHei-43" x="61.181641"/>
     <use xlink:href="#MicrosoftYaHei-41" x="128.076172"/>
     <use xlink:href="#MicrosoftYaHei-5f" x="198.4375"/>
     <use xlink:href="#MicrosoftYaHei-52" x="243.261719"/>
     <use xlink:href="#MicrosoftYaHei-4f" x="307.419922"/>
     <use xlink:href="#MicrosoftYaHei-43" x="388.914062"/>
     <use xlink:href="#MicrosoftYaHei-20" x="455.808594"/>
     <use xlink:href="#MicrosoftYaHei-66f2" x="485.398438"/>
     <use xlink:href="#MicrosoftYaHei-7ebf" x="585.398438"/>
    </g>
   </g>
   <g id="legend_1">
    <g id="patch_7">
     <path d="M 64.6 64.951687 
L 203.790625 64.951687 
Q 205.790625 64.951687 205.790625 62.951687 
L 205.790625 48.472 
Q 205.790625 46.472 203.790625 46.472 
L 64.6 46.472 
Q 62.6 46.472 62.6 48.472 
L 62.6 62.951687 
Q 62.6 64.951687 64.6 64.951687 
z
" style="fill: #ffffff; opacity: 0.8; stroke: #cccccc; stroke-linejoin: miter"/>
    </g>
    <g id="line2d_15">
     <path d="M 66.6 54.96575 
L 76.6 54.96575 
L 86.6 54.96575 
" style="fill: none; stroke: #1f77b4; stroke-width: 1.5; stroke-linecap: square"/>
    </g>
    <g id="text_16">
     <!-- ROC 曲线 (面积 = 0.79) -->
     <g transform="translate(94.6 58.46575) scale(0.1 -0.1)">
      <defs>
       <path id="MicrosoftYaHei-28" d="M 1531 -1100 
Q 478 100 478 1847 
Q 478 3594 1531 4841 
L 2072 4841 
Q 1016 3544 1016 1853 
Q 1016 166 2066 -1100 
L 1531 -1100 
z
" transform="scale(0.015625)"/>
       <path id="MicrosoftYaHei-9762" d="M 519 3659 
L 2500 3659 
Q 2681 4134 2794 4484 
L 188 4484 
L 188 4947 
L 6200 4947 
L 6200 4484 
L 3353 4484 
Q 3216 4144 3009 3659 
L 5850 3659 
L 5850 -809 
L 5369 -809 
L 5369 -459 
L 1000 -459 
L 1000 -816 
L 519 -816 
L 519 3659 
z
M 5369 3247 
L 4363 3247 
L 4363 -47 
L 5369 -47 
L 5369 3247 
z
M 1000 -47 
L 2006 -47 
L 2006 3247 
L 1000 3247 
L 1000 -47 
z
M 2456 -47 
L 3913 -47 
L 3913 784 
L 2456 784 
L 2456 -47 
z
M 2456 1184 
L 3913 1184 
L 3913 2016 
L 2456 2016 
L 2456 1184 
z
M 2456 2416 
L 3913 2416 
L 3913 3247 
L 2456 3247 
L 2456 2416 
z
" transform="scale(0.015625)"/>
       <path id="MicrosoftYaHei-79ef" d="M 2813 4784 
L 5975 4784 
L 5975 1528 
L 5500 1528 
L 5500 1828 
L 3288 1828 
L 3288 1528 
L 2813 1528 
L 2813 4784 
z
M 88 853 
Q 669 1728 1056 2947 
L 119 2947 
L 119 3384 
L 1119 3384 
L 1119 4378 
Q 713 4347 244 4316 
Q 213 4541 150 4772 
Q 1425 4841 2375 4978 
L 2488 4503 
Q 2106 4459 1581 4416 
L 1581 3384 
L 2513 3384 
L 2513 2947 
L 1581 2947 
L 1581 2066 
L 1831 2297 
Q 2213 1922 2644 1441 
L 2288 1128 
Q 1950 1541 1581 1934 
L 1581 -853 
L 1119 -853 
L 1119 1928 
Q 781 997 306 316 
Q 206 591 88 853 
z
M 5500 4359 
L 3288 4359 
L 3288 2253 
L 5500 2253 
L 5500 4359 
z
M 3475 1128 
L 3888 834 
Q 3175 -66 2519 -759 
Q 2369 -597 2163 -416 
Q 2925 353 3475 1128 
z
M 4775 828 
L 5163 1097 
Q 5738 441 6356 -372 
L 5919 -703 
Q 5369 109 4775 828 
z
" transform="scale(0.015625)"/>
       <path id="MicrosoftYaHei-3d" d="M 3972 2497 
L 788 2497 
L 788 2969 
L 3972 2969 
L 3972 2497 
z
M 3972 1053 
L 788 1053 
L 788 1525 
L 3972 1525 
L 3972 1053 
z
" transform="scale(0.015625)"/>
       <path id="MicrosoftYaHei-37" d="M 3422 4463 
Q 2659 3131 2223 1998 
Q 1788 866 1684 0 
L 1047 0 
Q 1163 853 1594 1947 
Q 2025 3041 2747 4300 
L 347 4300 
L 347 4841 
L 3422 4841 
L 3422 4463 
z
" transform="scale(0.015625)"/>
       <path id="MicrosoftYaHei-39" d="M 578 656 
Q 978 425 1441 425 
Q 2091 425 2448 937 
Q 2806 1450 2806 2394 
Q 2800 2388 2794 2394 
Q 2475 1788 1722 1788 
Q 1113 1788 713 2206 
Q 313 2625 313 3294 
Q 313 4006 750 4464 
Q 1188 4922 1884 4922 
Q 2606 4922 3012 4355 
Q 3419 3788 3419 2703 
Q 3419 1363 2894 641 
Q 2369 -81 1441 -81 
Q 931 -81 578 84 
L 578 656 
z
M 931 3372 
Q 931 2884 1181 2598 
Q 1431 2313 1872 2313 
Q 2253 2313 2512 2573 
Q 2772 2834 2772 3206 
Q 2772 3728 2514 4070 
Q 2256 4413 1834 4413 
Q 1444 4413 1187 4116 
Q 931 3819 931 3372 
z
" transform="scale(0.015625)"/>
       <path id="MicrosoftYaHei-29" d="M 78 -1100 
Q 1131 163 1131 1853 
Q 1131 3547 72 4841 
L 616 4841 
Q 1672 3603 1672 1847 
Q 1672 91 616 -1100 
L 78 -1100 
z
" transform="scale(0.015625)"/>
      </defs>
      <use xlink:href="#MicrosoftYaHei-52"/>
      <use xlink:href="#MicrosoftYaHei-4f" x="64.158203"/>
      <use xlink:href="#MicrosoftYaHei-43" x="145.652344"/>
      <use xlink:href="#MicrosoftYaHei-20" x="212.546875"/>
      <use xlink:href="#MicrosoftYaHei-66f2" x="242.136719"/>
      <use xlink:href="#MicrosoftYaHei-7ebf" x="342.136719"/>
      <use xlink:href="#MicrosoftYaHei-20" x="442.136719"/>
      <use xlink:href="#MicrosoftYaHei-28" x="471.726562"/>
      <use xlink:href="#MicrosoftYaHei-9762" x="505.125"/>
      <use xlink:href="#MicrosoftYaHei-79ef" x="605.125"/>
      <use xlink:href="#MicrosoftYaHei-20" x="705.125"/>
      <use xlink:href="#MicrosoftYaHei-3d" x="734.714844"/>
      <use xlink:href="#MicrosoftYaHei-20" x="808.884766"/>
      <use xlink:href="#MicrosoftYaHei-30" x="838.474609"/>
      <use xlink:href="#MicrosoftYaHei-2e" x="897.117188"/>
      <use xlink:href="#MicrosoftYaHei-37" x="921.189453"/>
      <use xlink:href="#MicrosoftYaHei-39" x="979.832031"/>
      <use xlink:href="#MicrosoftYaHei-29" x="1038.474609"/>
     </g>
    </g>
   </g>
  </g>
 </g>
 <defs>
  <clipPath id="p5a55a19128">
   <rect x="57.6" y="41.472" width="357.12" height="266.112"/>
  </clipPath>
 </defs>
</svg>
